<svg width="1472" height="418" viewBox="0 0 1472 418" fill="none" xmlns="http://www.w3.org/2000/svg">
<path d="M357.005 55.2876C309.207 7.40706 233.459 5.64777 164.211 75.0007C104.136 135.171 117.604 121.688 98.6826 140.643C52.4747 186.926 44.8839 256.211 50.0447 302.464L186.411 165.876C191.19 161.085 198.945 161.085 203.723 165.876C208.501 170.668 208.501 178.427 203.723 183.218L5.38172 381.868C-1.79391 389.047 -1.79391 400.694 5.38172 407.873C12.5574 415.052 24.1734 415.052 31.349 407.873L81.8692 357.283C121.834 369.318 213.219 371.205 270.494 315.18H195.455L308.238 277.528C346.449 239.264 336.039 249.798 343.634 241.619H268.899L369.421 208.064C404.156 151.007 395.65 94.0043 357.005 55.2876Z" fill="#4540E2"/>
<path d="M570.23 412.419V21.765H650.935V196.443L821.249 21.765H919.765L730.526 207.605L928.67 412.419H820.693L650.935 231.044V412.419H570.23Z" fill="#4540E2"/>
<path d="M1042.37 418C1020.1 418 1000.25 413.163 982.811 403.49C965.742 393.445 952.199 379.679 942.18 362.192C932.533 344.706 927.709 324.615 927.709 301.92V121.661H1003.96V290.758C1003.96 309.361 1009.34 324.243 1020.1 335.405C1031.23 346.566 1046.08 352.147 1064.63 352.147C1077.24 352.147 1088.56 349.729 1098.58 344.892C1108.97 339.683 1117.5 332.428 1124.18 323.127V121.661H1200.44V412.419H1124.18V388.98C1101.92 408.327 1074.65 418 1042.37 418Z" fill="#4540E2"/>
<path d="M1259.86 412.419V121.661H1336.12V412.419H1259.86ZM1297.71 87.0601C1285.84 87.0601 1275.63 82.7815 1267.1 74.2243C1258.56 65.6671 1254.3 55.4357 1254.3 43.53C1254.3 31.2523 1258.56 21.0209 1267.1 12.8358C1275.63 4.27859 1285.84 0 1297.71 0C1309.96 0 1320.16 4.27859 1328.32 12.8358C1336.86 21.0209 1341.12 31.2523 1341.12 43.53C1341.12 55.4357 1336.86 65.6671 1328.32 74.2243C1320.16 82.7815 1309.96 87.0601 1297.71 87.0601Z" fill="#4540E2"/>
<path d="M1395.75 412.419V21.765L1472 8.92922V412.419H1395.75Z" fill="#4540E2"/>
</svg>
