<svg width="1220" height="1220" viewBox="0 0 1220 1220" fill="none" xmlns="http://www.w3.org/2000/svg">
<path d="M1113.12 106.862C964.09 -42.0272 727.914 -47.4978 512.002 168.161C324.69 355.268 366.683 313.339 307.687 372.283C163.613 516.202 139.946 731.651 156.037 875.48L581.22 450.747C596.119 435.848 620.298 435.848 635.196 450.747C650.095 465.646 650.095 489.775 635.196 504.673L16.7799 1122.39C-5.5933 1144.72 -5.5933 1180.93 16.7799 1203.26C39.1531 1225.58 75.3712 1225.58 97.7445 1203.26L255.264 1045.94C379.87 1083.37 664.806 1089.24 843.386 915.021H609.418L961.069 797.939C1080.21 678.951 1047.75 711.708 1071.43 686.275H838.413L1151.83 581.935C1260.14 404.511 1233.6 227.28 1113.11 106.887L1113.12 106.862Z" fill="white"/>
</svg>
